# xmcd
#
# Track frame offsets: 
#        150
#        15932
#        31297
#        49330
#        68581
#        86242
#        107392
#        124571
#        143277
#        158844
#
# Disc length: 2323 seconds
#
# Revision: 0
# Processed by: cddbd v1.5.2PL0 Copyright (c) Steve Scherf et al.
# Submitted via: ExactAudioCopyFreeDBPlugin 1.0
#
DISCID=6e09110a
DTITLE=洪卓立 - Grwon up
DYEAR=2012
DGENRE=Pop
TTITLE0=想一个人
TTITLE1=勿忘草
TTITLE2=某天再会
TTITLE3=奴隶与皇后的爱情故事
TTITLE4=在你的爱人身上找到我遗失已久的幸福
TTITLE5=人生有很多事情本来都是徒劳无功
TTITLE6=洪卓立+洪杰 - 四星期失恋
TTITLE7=洪卓立+钟舒漫 - 傻瓜 
TTITLE8=梵高的耳朵(国)
TTITLE9=三点四十二分
EXTD=
EXTT0=
EXTT1=
EXTT2=
EXTT3=
EXTT4=
EXTT5=
EXTT6=
EXTT7=
EXTT8=
EXTT9=
PLAYORDER=
